<?xml version="1.0" encoding="UTF-8" standalone="no"?>
<!DOCTYPE svg PUBLIC "-//W3C//DTD SVG 1.1//EN" "http://www.w3.org/Graphics/SVG/1.1/DTD/svg11.dtd">
<svg version="1.1" xmlns="http://www.w3.org/2000/svg" xmlns:xlink="http://www.w3.org/1999/xlink" preserveAspectRatio="xMidYMid meet" viewBox="79.99999999999991 60 100.00000000000006 99.99999999999994" width="100" height="100"><defs><path d="M180 110C180 137.6 157.6 160 130 160C102.4 160 80 137.6 80 110C80 82.4 102.4 60 130 60C157.6 60 180 82.4 180 110Z" id="cKn2I1G8M"></path><clipPath id="clipa35QT1jNNE"><use xlink:href="#cKn2I1G8M" opacity="1"></use></clipPath><path d="M170 110C170 132.08 152.08 150 130 150C107.92 150 90 132.08 90 110C90 87.92 107.92 70 130 70C152.08 70 170 87.92 170 110Z" id="d6dBVAJhw"></path><path d="M140 110C140 115.52 135.52 120 130 120C124.48 120 120 115.52 120 110C120 104.48 124.48 100 130 100C135.52 100 140 104.48 140 110Z" id="amUjUzn3X"></path><path d="M131.25 102.58C131.21 103.27 130.61 103.79 129.92 103.75C129.23 103.71 128.71 103.11 128.75 102.42C128.79 101.73 129.39 101.21 130.08 101.25C130.77 101.29 131.29 101.89 131.25 102.58Z" id="f19YaLQic"></path><path d="M131.25 106.25C131.25 106.94 130.69 107.5 130 107.5C129.31 107.5 128.75 106.94 128.75 106.25C128.75 105.56 129.31 105 130 105C130.69 105 131.25 105.56 131.25 106.25Z" id="d1MX41mCjg"></path><path d="M131.25 110C131.25 110.69 130.69 111.25 130 111.25C129.31 111.25 128.75 110.69 128.75 110C128.75 109.31 129.31 108.75 130 108.75C130.69 108.75 131.25 109.31 131.25 110Z" id="aWWBCeUnZ"></path><path d="M131.25 113.75C131.25 114.44 130.69 115 130 115C129.31 115 128.75 114.44 128.75 113.75C128.75 113.06 129.31 112.5 130 112.5C130.69 112.5 131.25 113.06 131.25 113.75Z" id="b1t3UAS4tN"></path><path d="M131.25 117.5C131.25 118.19 130.69 118.75 130 118.75C129.31 118.75 128.75 118.19 128.75 117.5C128.75 116.81 129.31 116.25 130 116.25C130.69 116.25 131.25 116.81 131.25 117.5Z" id="dtp1cVRh2"></path><path d="M135 110C135 110.69 134.44 111.25 133.75 111.25C133.06 111.25 132.5 110.69 132.5 110C132.5 109.31 133.06 108.75 133.75 108.75C134.44 108.75 135 109.31 135 110Z" id="b4VYBAb9My"></path><path d="M138.75 110C138.75 110.69 138.19 111.25 137.5 111.25C136.81 111.25 136.25 110.69 136.25 110C136.25 109.31 136.81 108.75 137.5 108.75C138.19 108.75 138.75 109.31 138.75 110Z" id="hn6mmAgRR"></path><path d="M127.5 110C127.5 110.69 126.94 111.25 126.25 111.25C125.56 111.25 125 110.69 125 110C125 109.31 125.56 108.75 126.25 108.75C126.94 108.75 127.5 109.31 127.5 110Z" id="cB8dIdCBu"></path><path d="M123.75 110C123.75 110.69 123.19 111.25 122.5 111.25C121.81 111.25 121.25 110.69 121.25 110C121.25 109.31 121.81 108.75 122.5 108.75C123.19 108.75 123.75 109.31 123.75 110Z" id="fhJMj6p5g"></path><path d="M135 106.25C135 106.94 134.44 107.5 133.75 107.5C133.06 107.5 132.5 106.94 132.5 106.25C132.5 105.56 133.06 105 133.75 105C134.44 105 135 105.56 135 106.25Z" id="e7FOCpqOfu"></path><path d="M135 113.75C135 114.44 134.44 115 133.75 115C133.06 115 132.5 114.44 132.5 113.75C132.5 113.06 133.06 112.5 133.75 112.5C134.44 112.5 135 113.06 135 113.75Z" id="dga4HOqzE"></path><path d="M127.5 113.75C127.5 114.44 126.94 115 126.25 115C125.56 115 125 114.44 125 113.75C125 113.06 125.56 112.5 126.25 112.5C126.94 112.5 127.5 113.06 127.5 113.75Z" id="f2tFrKCzBR"></path><path d="M127.5 106.25C127.5 106.94 126.94 107.5 126.25 107.5C125.56 107.5 125 106.94 125 106.25C125 105.56 125.56 105 126.25 105C126.94 105 127.5 105.56 127.5 106.25Z" id="c383EtpQt6"></path><path d="M138.75 106.25C138.75 106.94 138.19 107.5 137.5 107.5C136.81 107.5 136.25 106.94 136.25 106.25C136.25 105.56 136.81 105 137.5 105C138.19 105 138.75 105.56 138.75 106.25Z" id="cd7mOsmdx"></path><path d="M138.75 113.75C138.75 114.44 138.19 115 137.5 115C136.81 115 136.25 114.44 136.25 113.75C136.25 113.06 136.81 112.5 137.5 112.5C138.19 112.5 138.75 113.06 138.75 113.75Z" id="eA5LrlLR"></path><path d="M123.75 113.75C123.75 114.44 123.19 115 122.5 115C121.81 115 121.25 114.44 121.25 113.75C121.25 113.06 121.81 112.5 122.5 112.5C123.19 112.5 123.75 113.06 123.75 113.75Z" id="aa7ytmZRm"></path><path d="M123.75 106.25C123.75 106.94 123.19 107.5 122.5 107.5C121.81 107.5 121.25 106.94 121.25 106.25C121.25 105.56 121.81 105 122.5 105C123.19 105 123.75 105.56 123.75 106.25Z" id="b587dTW5hI"></path><path d="M127.5 102.5C127.5 103.19 126.94 103.75 126.25 103.75C125.56 103.75 125 103.19 125 102.5C125 101.81 125.56 101.25 126.25 101.25C126.94 101.25 127.5 101.81 127.5 102.5Z" id="cTlpx8Emi"></path><path d="M135 102.69C135 103.38 134.44 103.94 133.75 103.94C133.06 103.94 132.5 103.38 132.5 102.69C132.5 102 133.06 101.44 133.75 101.44C134.44 101.44 135 102 135 102.69Z" id="dnpt3JVaD"></path><path d="M135 117.5C135 118.19 134.44 118.75 133.75 118.75C133.06 118.75 132.5 118.19 132.5 117.5C132.5 116.81 133.06 116.25 133.75 116.25C134.44 116.25 135 116.81 135 117.5Z" id="d2CFenJLIR"></path><path d="M127.5 117.5C127.5 118.19 126.94 118.75 126.25 118.75C125.56 118.75 125 118.19 125 117.5C125 116.81 125.56 116.25 126.25 116.25C126.94 116.25 127.5 116.81 127.5 117.5Z" id="epUIfWZC"></path></defs><g><g><g><use xlink:href="#cKn2I1G8M" opacity="1" fill="#f0f0f0" fill-opacity="1"></use><g clip-path="url(#clipa35QT1jNNE)"><use xlink:href="#cKn2I1G8M" opacity="1" fill-opacity="0" stroke="#c5c5c5" stroke-width="2" stroke-opacity="1"></use></g></g><g><use xlink:href="#d6dBVAJhw" opacity="1" fill="#a4a4a4" fill-opacity="1"></use></g><g><use xlink:href="#amUjUzn3X" opacity="1" fill="#f0f0f0" fill-opacity="1"></use></g><g><use xlink:href="#f19YaLQic" opacity="1" fill="#595959" fill-opacity="1"></use></g><g><use xlink:href="#d1MX41mCjg" opacity="1" fill="#595959" fill-opacity="1"></use></g><g><use xlink:href="#aWWBCeUnZ" opacity="1" fill="#595959" fill-opacity="1"></use></g><g><use xlink:href="#b1t3UAS4tN" opacity="1" fill="#595959" fill-opacity="1"></use></g><g><use xlink:href="#dtp1cVRh2" opacity="1" fill="#595959" fill-opacity="1"></use></g><g><use xlink:href="#b4VYBAb9My" opacity="1" fill="#595959" fill-opacity="1"></use></g><g><use xlink:href="#hn6mmAgRR" opacity="1" fill="#595959" fill-opacity="1"></use></g><g><use xlink:href="#cB8dIdCBu" opacity="1" fill="#595959" fill-opacity="1"></use></g><g><use xlink:href="#fhJMj6p5g" opacity="1" fill="#595959" fill-opacity="1"></use></g><g><use xlink:href="#e7FOCpqOfu" opacity="1" fill="#595959" fill-opacity="1"></use></g><g><use xlink:href="#dga4HOqzE" opacity="1" fill="#595959" fill-opacity="1"></use></g><g><use xlink:href="#f2tFrKCzBR" opacity="1" fill="#595959" fill-opacity="1"></use></g><g><use xlink:href="#c383EtpQt6" opacity="1" fill="#595959" fill-opacity="1"></use></g><g><use xlink:href="#cd7mOsmdx" opacity="1" fill="#595959" fill-opacity="1"></use></g><g><use xlink:href="#eA5LrlLR" opacity="1" fill="#595959" fill-opacity="1"></use></g><g><use xlink:href="#aa7ytmZRm" opacity="1" fill="#595959" fill-opacity="1"></use></g><g><use xlink:href="#b587dTW5hI" opacity="1" fill="#595959" fill-opacity="1"></use></g><g><use xlink:href="#cTlpx8Emi" opacity="1" fill="#595959" fill-opacity="1"></use></g><g><use xlink:href="#dnpt3JVaD" opacity="1" fill="#595959" fill-opacity="1"></use></g><g><use xlink:href="#d2CFenJLIR" opacity="1" fill="#595959" fill-opacity="1"></use></g><g><use xlink:href="#epUIfWZC" opacity="1" fill="#595959" fill-opacity="1"></use></g></g></g></svg>